<svg xmlns="http://www.w3.org/2000/svg" width="600" height="300" viewBox="0 0 600 300">
  <defs>
    <linearGradient id="bg" x1="0%" y1="0%" x2="100%" y2="100%">
      <stop offset="0%" stop-color="#0a0a0a"/>
      <stop offset="100%" stop-color="#0f1a0f"/>
    </linearGradient>
  </defs>
  <rect width="600" height="300" fill="url(#bg)"/>
  <!-- Matrix rain columns -->
  <g font-family="monospace" font-size="12" fill="#00ff41" opacity="0.15">
    <text x="30" y="20">01001</text><text x="30" y="40">11010</text><text x="30" y="60">00111</text><text x="30" y="80">10100</text><text x="30" y="100">01110</text><text x="30" y="120">11001</text><text x="30" y="140">00010</text>
    <text x="100" y="50">10110</text><text x="100" y="70">01001</text><text x="100" y="90">11100</text><text x="100" y="110">00011</text><text x="100" y="130">10101</text><text x="100" y="150">01010</text>
    <text x="470" y="30">11001</text><text x="470" y="50">00110</text><text x="470" y="70">10011</text><text x="470" y="90">01100</text><text x="470" y="110">11010</text><text x="470" y="130">00101</text>
    <text x="540" y="60">01110</text><text x="540" y="80">10001</text><text x="540" y="100">01010</text><text x="540" y="120">11101</text><text x="540" y="140">00010</text>
  </g>
  <!-- Terminal window -->
  <rect x="120" y="50" width="360" height="200" rx="8" fill="#111" stroke="#00ff41" stroke-width="1" opacity="0.9"/>
  <rect x="120" y="50" width="360" height="24" rx="8" fill="#1a1a1a"/>
  <rect x="120" y="66" width="360" height="8" fill="#1a1a1a"/>
  <circle cx="138" cy="62" r="5" fill="#ff5f57"/><circle cx="156" cy="62" r="5" fill="#febc2e"/><circle cx="174" cy="62" r="5" fill="#28c840"/>
  <text x="140" y="100" font-family="monospace" font-size="13" fill="#00ff41">nullshift@labs:~$</text>
  <text x="140" y="120" font-family="monospace" font-size="13" fill="#888">Privacy-First Builder Labs</text>
  <text x="140" y="150" font-family="monospace" font-size="11" fill="#00ff41">> 17 pages deployed</text>
  <text x="140" y="170" font-family="monospace" font-size="11" fill="#00ffff">> 25 JS modules loaded</text>
  <text x="140" y="190" font-family="monospace" font-size="11" fill="#ff0080">> 11 projects active</text>
  <text x="140" y="220" font-family="monospace" font-size="11" fill="#00ff41">> _</text>
  <!-- Glow -->
  <rect x="120" y="50" width="360" height="200" rx="8" fill="none" stroke="#00ff41" stroke-width="1" opacity="0.3" filter="url(#glow)"/>
  <rect x="0" y="297" width="600" height="3" fill="#00ff41" opacity="0.6"/>
</svg>
